<svg xmlns="http://www.w3.org/2000/svg" xmlns:xlink="http://www.w3.org/1999/xlink" version="1.1" x="0px" y="0px" viewBox="0 0 64 80" enable-background="new 0 0 64 64" xml:space="preserve"><g><path d="M8.253,20.735c0-3.813,0.836-6.639,2.511-8.477c1.674-1.839,3.942-2.758,6.808-2.758c2.961,0,5.278,0.913,6.953,2.742   c1.673,1.829,2.51,4.66,2.51,8.492c0,3.813-0.837,6.639-2.51,8.477c-1.675,1.839-3.944,2.758-6.807,2.758   c-2.961,0-5.28-0.914-6.954-2.742C9.089,27.397,8.253,24.567,8.253,20.735z M14.61,20.677c0,2.769,0.32,4.627,0.958,5.574   c0.484,0.697,1.15,1.045,2.003,1.045c0.871,0,1.548-0.348,2.032-1.045c0.62-0.947,0.929-2.806,0.929-5.574   c0-2.767-0.309-4.615-0.929-5.545c-0.484-0.715-1.161-1.073-2.032-1.073c-0.853,0-1.519,0.349-2.003,1.044   C14.93,16.052,14.61,17.91,14.61,20.677z M23.785,54.411h-6.039l22.672-44.91h5.865L23.785,54.411z M36.965,43.234   c0-3.813,0.836-6.638,2.51-8.477s3.963-2.759,6.867-2.759c2.922,0,5.221,0.92,6.895,2.759s2.51,4.664,2.51,8.477   c0,3.832-0.836,6.667-2.51,8.506s-3.943,2.759-6.809,2.759c-2.961,0-5.279-0.92-6.953-2.759S36.965,47.066,36.965,43.234z    M43.322,43.204c0,2.77,0.318,4.617,0.957,5.546c0.484,0.717,1.152,1.074,2.004,1.074c0.871,0,1.537-0.349,2.004-1.045   c0.639-0.948,0.957-2.806,0.957-5.575c0-2.766-0.311-4.624-0.93-5.572c-0.482-0.697-1.16-1.045-2.031-1.045   c-0.869,0-1.539,0.348-2.004,1.045C43.641,38.58,43.322,40.438,43.322,43.204z"/></g></svg>