<?xml version="1.0" encoding="UTF-8" standalone="no"?><!DOCTYPE svg PUBLIC "-//W3C//DTD SVG 1.1//EN" "http://www.w3.org/Graphics/SVG/1.1/DTD/svg11.dtd"><svg width="40px" height="40px" viewBox="0 0 40 60" version="1.1" xmlns="http://www.w3.org/2000/svg" xmlns:xlink="http://www.w3.org/1999/xlink" xml:space="preserve" style="fill-rule:evenodd;clip-rule:evenodd;stroke-linecap:square;stroke-linejoin:round;stroke-miterlimit:1.5;"><rect x="18.083" y="36.328" width="3.737" height="18.934" style="fill:#4285f4;"/><path d="M20,53.72l7.205,3.083l-14.41,0l7.205,-3.083Z" style="fill:#4285f4;"/><path d="M25.783,6.783l11.028,0l0,16.432l-33.093,0l0,-16.432l10.56,0l5.752,2.964l5.753,-2.964Z" style="fill:#4285f4;"/><path d="M36.914,23.308l-15.094,6.52l0,-6.52l15.094,0Z"/><path d="M21.82,23.308l15.094,-3.389l0,3.389l-15.094,0Z"/><path d="M25.794,9.008l-5.794,4.315l0,-4.315l5.794,0Z"/><path d="M20,9.008l5.794,-2.242l0,2.242l-5.794,0Z"/><path d="M3.086,23.308l15.094,6.52l0,-6.52l-15.094,0Z"/><path d="M18.18,23.308l-15.094,-3.389l0,3.389l15.094,0Z"/><path d="M14.206,9.008l5.794,4.315l0,-4.315l-5.794,0Z"/><path d="M20,9.008l-5.794,-2.242l0,2.242l5.794,0Z"/><path d="M36.419,20.583l0,-17.803" style="fill:none;stroke:#000;stroke-width:0.99px;"/><path d="M3.585,21.613l0,-18.833" style="fill:none;stroke:#000;stroke-width:0.99px;"/><path d="M36.373,2.78l-32.788,0" style="fill:none;stroke:#000;stroke-width:0.99px;"/><path d="M3.539,38.397l0,18.823" style="fill:none;stroke:#000;stroke-width:0.99px;"/><path d="M36.373,38.387l0,18.833" style="fill:none;stroke:#000;stroke-width:0.99px;"/><path d="M3.585,57.22l32.788,0" style="fill:none;stroke:#000;stroke-width:0.99px;"/><path d="M36.208,38.137l-16.046,-7.284" style="fill:none;stroke:#000;stroke-width:0.99px;"/><path d="M36.208,38.137l-16.046,-7.284" style="fill:none;stroke:#000;stroke-width:0.99px;"/><path d="M19.765,30.853l-16.047,7.284" style="fill:none;stroke:#000;stroke-width:0.99px;"/><path d="M20,37.221l0,-25.608" style="fill:none;stroke:#000;stroke-width:3.8px;stroke-linecap:round;"/></svg>